<svg height='100px' width='100px'  fill="#00002a" xmlns="http://www.w3.org/2000/svg" xmlns:xlink="http://www.w3.org/1999/xlink" version="1.1" x="0px" y="0px" viewBox="0 0 91 91" style="enable-background:new 0 0 91 91;" xml:space="preserve"><g><path d="M39.5,47.1c0.4,0.6,1.1,1.1,1.8,1.3c0.8,0.2,1.5,0,2.2-0.4l0.9-0.6c0.6-0.4,1.1-1.1,1.3-1.8c0.2-0.8,0-1.5-0.4-2.2l-8.4-13   c-0.4-0.6-1.1-1.1-1.8-1.3c-0.2,0-0.4-0.1-0.6-0.1c-0.5,0-1.1,0.2-1.6,0.5c0,0,0,0,0,0L32,30.2c-1.3,0.9-1.7,2.7-0.9,4L39.5,47.1z"></path><path d="M31.7,52.2c0.9,1.3,2.7,1.7,4,0.9l0.9-0.6c1.3-0.9,1.7-2.7,0.9-4l-8.4-13c-0.6-0.9-1.5-1.3-2.4-1.3c-0.5,0-1.1,0.1-1.6,0.5   l0,0l-0.9,0.6c-1.3,0.9-1.7,2.7-0.9,4L31.7,52.2z"></path><path d="M37.8,27.8c0.5,0.4,0.9,0.8,1.2,1.3l8.4,13c1.6,2.5,0.9,5.8-1.6,7.5l-0.9,0.6C44,50.6,43,50.9,42,50.9   c-0.4,0-0.8,0-1.1-0.1c-0.2,0-0.3-0.1-0.5-0.2c-0.2,1.5-1,3-2.4,3.9l-0.9,0.6c-0.9,0.6-1.9,0.9-2.9,0.9c-1.8,0-3.5-0.9-4.5-2.5   l-6.3-9.7l1,16.3l7.2,15.8c0.1,0.2,0.1,0.3,0.1,0.5v4.2c3.1,1.2,15.4,5.2,26.4,0l0.6-4.4c0-0.1,0.1-0.3,0.1-0.4   c0.2-0.5,5.5-11.2,7.4-14.9c2.1-4,4.7-14.6,1.1-17c-1-0.7-4.3-1.7-7.6-2.6c0,0,0,0,0,0c0,0,0,0,0,0c-1.6-0.4-3.2-0.9-4.4-1.2   c-0.3-0.1-1.5-0.4-2,0.6c-1.2,2.1-0.9,4.3,0.7,5.6l5.4,3.7c0.4,0.3,0.6,0.8,0.5,1.3l-1,4c-0.1,0.4-0.4,0.8-0.8,0.9   c-0.1,0-10.8,3.7-11.5,11.4c-0.1,0.7-0.7,1.2-1.4,1.1c-0.7-0.1-1.2-0.7-1.1-1.4c0.8-8.2,10-12.3,12.6-13.3l0.6-2.5l-4.7-3.3   c-2.6-2.1-3.1-5.7-1.4-8.8c1.3-2.3,3.8-2.2,4.9-1.8c0.3,0.1,1.6,0.4,3.2,0.8l7.4-28.5c0.2-0.9,0.1-1.8-0.4-2.6   c-0.5-0.8-1.2-1.4-2.1-1.6l-1-0.3C62,5.4,61.1,5.5,60.3,6c-0.8,0.5-1.4,1.2-1.6,2.1l-7.9,27.3c0,0,0,0.1-0.1,0.1   c0,0.1-0.1,0.2-0.1,0.2c0,0.1-0.1,0.1-0.1,0.2c-0.1,0.1-0.1,0.1-0.2,0.1c-0.1,0.1-0.1,0.1-0.2,0.1c0,0-0.1,0-0.1,0.1   c0,0-0.1,0-0.1,0c0,0-0.1,0-0.1,0c0,0-0.1,0-0.1,0c-0.1,0-0.2,0-0.3,0c0,0-0.1,0-0.1,0c0,0,0,0,0,0c-0.1,0-0.3-0.1-0.4-0.2   c0,0-0.1-0.1-0.1-0.1c-0.1-0.1-0.1-0.2-0.2-0.2c0,0,0-0.1-0.1-0.1c0,0-0.1-0.1-0.1-0.1L40,8.2c-0.5-1.9-2.4-3-4.3-2.5l-1,0.3   c-0.9,0.2-1.7,0.8-2.1,1.6c-0.5,0.8-0.6,1.7-0.4,2.6L37.8,27.8z"></path></g></svg>